<svg xmlns="http://www.w3.org/2000/svg" xmlns:xlink="http://www.w3.org/1999/xlink" xmlns:svgjs="http://svgjs.dev/svgjs" version="1.1" viewBox="0 0 8.424020757072038 1.7203881807915722"><g transform="matrix(1,0,0,1,1.8268575747842473,0.32319409039578606)"><rect width="8.424020757072038" height="8.424020757072038" x="-1.8268575747842473" y="-3.675010378536019" fill="none" style="&#10;    background: red;&#10;"/><g><path d=" M 0.5715 1.0829999999999997 Q 0.45 1.0829999999999997 0.35100000000000003 1.0372499999999998 Q 0.252 0.9914999999999998 0.18075 0.9142499999999998 Q 0.1095 0.8369999999999999 0.07125000000000001 0.7402499999999999 Q 0.033 0.6434999999999998 0.033 0.5399999999999998 Q 0.033 0.4334999999999999 0.0735 0.3374999999999998 Q 0.114 0.24149999999999983 0.18675 0.16574999999999984 Q 0.2595 0.08999999999999986 0.35925 0.046499999999999764 Q 0.459 0.0029999999999998916 0.5775 0.0029999999999998916 Q 0.6990000000000001 0.0029999999999998916 0.798 0.04874999999999985 Q 0.897 0.0944999999999998 0.9675 0.17249999999999988 Q 1.038 0.25049999999999983 1.07625 0.34724999999999984 Q 1.1145 0.44399999999999984 1.1145 0.5459999999999998 Q 1.1145 0.6509999999999998 1.07475 0.7469999999999999 Q 1.035 0.8429999999999999 0.96225 0.9187499999999998 Q 0.8895000000000001 0.9944999999999998 0.7905 1.0387499999999998 Q 0.6915 1.0829999999999997 0.5715 1.0829999999999997 M 0.33 0.5429999999999998 Q 0.33 0.5969999999999998 0.34500000000000003 0.6472499999999999 Q 0.36 0.6974999999999998 0.39 0.7372499999999998 Q 0.42 0.7769999999999999 0.46575 0.8002499999999999 Q 0.5115000000000001 0.8234999999999999 0.5745 0.8234999999999999 Q 0.6375000000000001 0.8234999999999999 0.684 0.7994999999999999 Q 0.7305 0.7754999999999999 0.75975 0.7342499999999998 Q 0.789 0.6929999999999998 0.80325 0.6427499999999998 Q 0.8175 0.5924999999999998 0.8175 0.5399999999999998 Q 0.8175 0.4859999999999999 0.8025 0.4364999999999998 Q 0.7875 0.3869999999999998 0.7575000000000001 0.34724999999999984 Q 0.7275 0.3074999999999998 0.681 0.2849999999999998 Q 0.6345000000000001 0.26249999999999984 0.5730000000000001 0.26249999999999984 Q 0.51 0.26249999999999984 0.46425 0.28649999999999987 Q 0.4185 0.3104999999999998 0.3885 0.35024999999999984 Q 0.3585 0.3899999999999998 0.34425 0.4402499999999998 Q 0.33 0.4904999999999998 0.33 0.5429999999999998 M 1.8795498046875 0.3569999999999999 Q 1.8795498046875 0.3569999999999999 1.8540498046875 0.34199999999999986 Q 1.8285498046875 0.32699999999999985 1.7865498046875 0.3082499999999998 Q 1.7445498046874999 0.28949999999999987 1.6950498046875 0.27449999999999986 Q 1.6455498046875001 0.25949999999999984 1.5975498046875 0.25949999999999984 Q 1.5600498046875 0.25949999999999984 1.5360498046875 0.27149999999999985 Q 1.5120498046875 0.28349999999999986 1.5120498046875 0.31199999999999983 Q 1.5120498046875 0.33899999999999986 1.5360498046875 0.3554999999999998 Q 1.5600498046875 0.3719999999999998 1.6042998046874999 0.38549999999999984 Q 1.6485498046875 0.3989999999999998 1.7100498046875 0.41849999999999987 Q 1.8090498046875 0.4484999999999998 1.8810498046875 0.4874999999999998 Q 1.9530498046875 0.5264999999999999 1.9920498046875 0.5872499999999998 Q 2.0310498046875 0.6479999999999999 2.0310498046875 0.7484999999999998 Q 2.0310498046875 0.8444999999999998 1.9965498046875 0.9097499999999998 Q 1.9620498046875001 0.9749999999999999 1.9035498046875001 1.0139999999999998 Q 1.8450498046875001 1.053 1.7730498046875 1.07025 Q 1.7010498046875 1.0875 1.6260498046874998 1.0875 Q 1.5495498046875 1.0875 1.4662998046875 1.0717499999999998 Q 1.3830498046875 1.0559999999999998 1.3050498046874999 1.0282499999999999 Q 1.2270498046875 1.0005 1.1625498046875 0.9629999999999999 L 1.2885498046875 0.7064999999999999 Q 1.2885498046875 0.7064999999999999 1.3185498046875 0.7244999999999998 Q 1.3485498046875 0.7424999999999998 1.3980498046875 0.7649999999999999 Q 1.4475498046875 0.7874999999999999 1.5082998046875 0.8054999999999999 Q 1.5690498046874999 0.8234999999999999 1.6305498046875 0.8234999999999999 Q 1.6785498046875 0.8234999999999999 1.6972998046874999 0.8107499999999999 Q 1.7160498046875001 0.7979999999999998 1.7160498046875001 0.7769999999999999 Q 1.7160498046875001 0.7454999999999998 1.6830498046875 0.7282499999999998 Q 1.6500498046874998 0.7109999999999999 1.5967998046875 0.6952499999999998 Q 1.5435498046875 0.6794999999999998 1.4790498046875 0.6584999999999999 Q 1.3860498046875 0.6269999999999998 1.3260498046875 0.5872499999999998 Q 1.2660498046875 0.5474999999999999 1.2375498046875 0.4927499999999998 Q 1.2090498046875 0.43799999999999983 1.2090498046875 0.3599999999999999 Q 1.2090498046875 0.24149999999999983 1.2645498046875 0.1619999999999998 Q 1.3200498046875 0.0824999999999998 1.4107998046874999 0.04124999999999979 Q 1.5015498046875 -2.220446049250313e-16 1.6065498046875 -2.220446049250313e-16 Q 1.6845498046874998 -2.220446049250313e-16 1.7572998046875 0.018749999999999822 Q 1.8300498046875 0.03749999999999987 1.8937998046875 0.06449999999999978 Q 1.9575498046875 0.0914999999999998 2.0055498046875 0.11549999999999983 L 1.8795498046875 0.3569999999999999 M 2.164556396484375 1.0739999999999998 L 2.164556396484375 0.008999999999999897 L 2.653556396484375 0.008999999999999897 Q 2.731556396484375 0.008999999999999897 2.797556396484375 0.04049999999999976 Q 2.863556396484375 0.07199999999999984 2.911556396484375 0.12524999999999986 Q 2.959556396484375 0.17849999999999977 2.985806396484375 0.24449999999999983 Q 3.012056396484375 0.3104999999999998 3.012056396484375 0.3779999999999998 Q 3.012056396484375 0.4394999999999998 2.9940563964843747 0.49649999999999983 Q 2.976056396484375 0.5534999999999999 2.941556396484375 0.6007499999999999 Q 2.907056396484375 0.6479999999999999 2.859056396484375 0.6824999999999999 L 3.084056396484375 1.0739999999999998 L 2.763056396484375 1.0739999999999998 L 2.575556396484375 0.7469999999999999 L 2.457056396484375 0.7469999999999999 L 2.457056396484375 1.0739999999999998 L 2.164556396484375 1.0739999999999998 M 2.457056396484375 0.4919999999999999 L 2.6415563964843747 0.4919999999999999 Q 2.659556396484375 0.4919999999999999 2.676056396484375 0.4784999999999998 Q 2.692556396484375 0.46499999999999986 2.703806396484375 0.4394999999999998 Q 2.715056396484375 0.4139999999999998 2.715056396484375 0.3779999999999998 Q 2.715056396484375 0.3404999999999998 2.7023063964843748 0.31574999999999986 Q 2.6895563964843747 0.2909999999999998 2.670806396484375 0.27749999999999986 Q 2.652056396484375 0.2639999999999998 2.634056396484375 0.2639999999999998 L 2.457056396484375 0.2639999999999998 L 2.457056396484375 0.4919999999999999 M 3.6480798339843745 1.0829999999999997 Q 3.526579833984375 1.0829999999999997 3.4275798339843746 1.0372499999999998 Q 3.3285798339843744 0.9914999999999998 3.257329833984375 0.9142499999999998 Q 3.1860798339843748 0.8369999999999999 3.1478298339843747 0.7402499999999999 Q 3.1095798339843745 0.6434999999999998 3.1095798339843745 0.5399999999999998 Q 3.1095798339843745 0.4334999999999999 3.1500798339843747 0.3374999999999998 Q 3.1905798339843745 0.24149999999999983 3.2633298339843746 0.16574999999999984 Q 3.3360798339843747 0.08999999999999986 3.4358298339843745 0.046499999999999764 Q 3.5355798339843747 0.0029999999999998916 3.6540798339843747 0.0029999999999998916 Q 3.7755798339843745 0.0029999999999998916 3.8745798339843747 0.04874999999999985 Q 3.973579833984375 0.0944999999999998 4.044079833984375 0.17249999999999988 Q 4.114579833984375 0.25049999999999983 4.1528298339843746 0.34724999999999984 Q 4.191079833984375 0.44399999999999984 4.191079833984375 0.5459999999999998 Q 4.191079833984375 0.6509999999999998 4.1513298339843745 0.7469999999999999 Q 4.111579833984375 0.8429999999999999 4.038829833984375 0.9187499999999998 Q 3.9660798339843746 0.9944999999999998 3.8670798339843744 1.0387499999999998 Q 3.7680798339843746 1.0829999999999997 3.6480798339843745 1.0829999999999997 M 3.4065798339843747 0.5429999999999998 Q 3.4065798339843747 0.5969999999999998 3.421579833984375 0.6472499999999999 Q 3.4365798339843745 0.6974999999999998 3.4665798339843747 0.7372499999999998 Q 3.4965798339843746 0.7769999999999999 3.5423298339843745 0.8002499999999999 Q 3.5880798339843745 0.8234999999999999 3.6510798339843746 0.8234999999999999 Q 3.714079833984375 0.8234999999999999 3.760579833984375 0.7994999999999999 Q 3.8070798339843748 0.7754999999999999 3.8363298339843745 0.7342499999999998 Q 3.8655798339843748 0.6929999999999998 3.879829833984375 0.6427499999999998 Q 3.8940798339843745 0.5924999999999998 3.8940798339843745 0.5399999999999998 Q 3.8940798339843745 0.4859999999999999 3.879079833984375 0.4364999999999998 Q 3.8640798339843747 0.3869999999999998 3.834079833984375 0.34724999999999984 Q 3.8040798339843747 0.3074999999999998 3.7575798339843747 0.2849999999999998 Q 3.7110798339843747 0.26249999999999984 3.6495798339843746 0.26249999999999984 Q 3.5865798339843744 0.26249999999999984 3.5408298339843745 0.28649999999999987 Q 3.4950798339843745 0.3104999999999998 3.4650798339843747 0.35024999999999984 Q 3.4350798339843744 0.3899999999999998 3.420829833984375 0.4402499999999998 Q 3.4065798339843747 0.4904999999999998 3.4065798339843747 0.5429999999999998 M 4.800101806640625 1.0829999999999997 Q 4.678601806640625 1.0829999999999997 4.579601806640625 1.0372499999999998 Q 4.480601806640625 0.9914999999999998 4.4093518066406245 0.9142499999999998 Q 4.3381018066406245 0.8369999999999999 4.299851806640625 0.7402499999999999 Q 4.261601806640625 0.6434999999999998 4.261601806640625 0.5399999999999998 Q 4.261601806640625 0.4334999999999999 4.302101806640625 0.3374999999999998 Q 4.342601806640625 0.24149999999999983 4.415351806640625 0.16574999999999984 Q 4.488101806640625 0.08999999999999986 4.587851806640625 0.046499999999999764 Q 4.687601806640624 0.0029999999999998916 4.8061018066406245 0.0029999999999998916 Q 4.927601806640625 0.0029999999999998916 5.026601806640625 0.04874999999999985 Q 5.125601806640625 0.0944999999999998 5.196101806640625 0.17249999999999988 Q 5.266601806640625 0.25049999999999983 5.304851806640625 0.34724999999999984 Q 5.343101806640625 0.44399999999999984 5.343101806640625 0.5459999999999998 Q 5.343101806640625 0.6509999999999998 5.303351806640625 0.7469999999999999 Q 5.263601806640625 0.8429999999999999 5.190851806640625 0.9187499999999998 Q 5.118101806640625 0.9944999999999998 5.0191018066406246 1.0387499999999998 Q 4.920101806640625 1.0829999999999997 4.800101806640625 1.0829999999999997 M 4.558601806640625 0.5429999999999998 Q 4.558601806640625 0.5969999999999998 4.5736018066406245 0.6472499999999999 Q 4.588601806640625 0.6974999999999998 4.6186018066406245 0.7372499999999998 Q 4.648601806640625 0.7769999999999999 4.694351806640625 0.8002499999999999 Q 4.740101806640625 0.8234999999999999 4.803101806640624 0.8234999999999999 Q 4.866101806640625 0.8234999999999999 4.912601806640625 0.7994999999999999 Q 4.959101806640625 0.7754999999999999 4.988351806640625 0.7342499999999998 Q 5.0176018066406245 0.6929999999999998 5.031851806640625 0.6427499999999998 Q 5.046101806640625 0.5924999999999998 5.046101806640625 0.5399999999999998 Q 5.046101806640625 0.4859999999999999 5.031101806640625 0.4364999999999998 Q 5.016101806640624 0.3869999999999998 4.986101806640625 0.34724999999999984 Q 4.956101806640625 0.3074999999999998 4.909601806640625 0.2849999999999998 Q 4.863101806640625 0.26249999999999984 4.801601806640625 0.26249999999999984 Q 4.738601806640625 0.26249999999999984 4.692851806640625 0.28649999999999987 Q 4.647101806640625 0.3104999999999998 4.617101806640624 0.35024999999999984 Q 4.587101806640625 0.3899999999999998 4.5728518066406245 0.4402499999999998 Q 4.558601806640625 0.4904999999999998 4.558601806640625 0.5429999999999998 M 6.285144287109375 0.2639999999999998 L 5.979144287109375 0.2639999999999998 L 5.979144287109375 1.0739999999999998 L 5.686644287109375 1.0739999999999998 L 5.686644287109375 0.2639999999999998 L 5.379144287109375 0.2639999999999998 L 5.379144287109375 0.008999999999999897 L 6.285144287109375 0.008999999999999897 L 6.285144287109375 0.2639999999999998" fill="#ffffff" fill-rule="nonzero"/></g><g/><g clip-path="url(#SvgjsClipPath1015)"><g clip-path="url(#SvgjsClipPath1012599c02d1-15fc-4d8b-b0fd-2a4845c62a86)"><path d=" M -1.5298738358558328 0.3519228517008592 C -1.5237380913755136 0.3181762570591032 -1.5183693149552342 0.28442966241734724 -1.5053308579345557 0.25221700389567114 C -1.47005032717272 0.16478264505112158 -1.4094598504295672 0.09959035994772936 -1.328161236065337 0.05203834022525504 C -1.2338241646804282 -0.0031833600976183367 -1.1302834765750407 -0.026959369958855506 -1.0213740120493737 -0.026192401898815585 C -0.9354735893249041 -0.025425433838775678 -0.852641038840594 -0.0047172962176981505 -0.7744102967165233 0.030563234544137632 C -0.6846750336918541 0.07044557366621286 -0.6049103554477038 0.12566727398908625 -0.5366501981041518 0.1969953035727977 C -0.5343492939240321 0.1992962077529174 -0.5328153578039524 0.2008301438729972 -0.5305144536238326 0.20313104805311694 C -0.5266796133236329 0.20773285641335643 -0.5205438688433137 0.21310163283363567 -0.5259126452635932 0.21847040925391506 C -0.5320483897439123 0.22460615373423432 -0.5366501981041518 0.2169364731338353 -0.5404850384043514 0.21310163283363567 C -0.5980076429073445 0.15404509221056276 -0.6624329599506966 0.10572610442804856 -0.7352949256544881 0.06814466948609306 C -0.835000773459676 0.016757809463419225 -0.9408423657451833 -0.010853040698017475 -1.05358667057105 -0.001649423977538575 C -1.152525550316198 0.006020256622860487 -1.2445617175209869 0.03363110678429721 -1.326627299945257 0.09115371128729033 C -1.4163625629699264 0.15481206027060274 -1.4715842632927996 0.23917854687499263 -1.4838557522534381 0.3503889155807792 C -1.486923624493598 0.3795337018622958 -1.486156656433558 0.4086784881438123 -1.4830887841933984 0.43782327442532876 C -1.4807878800132785 0.45853141204640635 -1.486156656433558 0.46620109264680537 -1.502262985694396 0.46696806070684527 C -1.5176023468951942 0.46773502876688516 -1.5252720274955933 0.46083231622652604 -1.526805963615673 0.4416581147255283 C -1.526805963615673 0.43859024248536865 -1.528339899735753 0.435522370245209 -1.5291068677957929 0.4324544980050494 C -1.5298738358558328 0.40484364784361276 -1.5298738358558328 0.37799976574221594 -1.5298738358558328 0.3519228517008592 Z" fill="#1192dc" transform="matrix(1,0,0,1,0,0)" fill-rule="nonzero"/></g><g clip-path="url(#SvgjsClipPath1012599c02d1-15fc-4d8b-b0fd-2a4845c62a86)"><path d=" M -1.38721777668841 0.42171694516449076 C -1.38798474474845 0.3151083848189436 -1.3527042139866141 0.23150886627459355 -1.2844440566430622 0.1624817408710018 C -1.2223196437798296 0.09959035994772936 -1.1456228377758388 0.06277589306581374 -1.0581884789312894 0.05203834022525504 C -0.8955912502028289 0.032097170664217425 -0.7529351910354061 0.08271706262685138 -0.6256184930687815 0.18165594237199953 C -0.5596592399053493 0.2330428023946734 -0.5044375395824758 0.29593418331794585 -0.4599533921001613 0.36649524484161744 C -0.45611855179996197 0.37263098932193667 -0.45305067955980216 0.37876673380225595 -0.4492158392596026 0.3849024782825752 C -0.44768190313952294 0.38873731858277466 -0.44768190313952294 0.3925721588829743 -0.4515167434397225 0.39487306306309394 C -0.4553515837399218 0.3971739672432137 -0.45918642404012133 0.39564003112313384 -0.4614873282202414 0.3925721588829743 C -0.4645552004604008 0.38873731858277466 -0.4676230727005606 0.3841355102225353 -0.4699239768806802 0.3795337018622958 C -0.5374171661641922 0.2729251415167486 -0.6240845569487017 0.18702471879227886 -0.737595829834608 0.12873514622924584 C -0.8204283803189181 0.08578493486701093 -0.9093966752835475 0.06430982918589354 -1.0029667786084162 0.07044557366621278 C -1.127982572394921 0.07811525426661187 -1.229222356320189 0.1295021142892857 -1.2982494817237806 0.23611067463483293 C -1.3258603318852176 0.27906088599706785 -1.3419666611460555 0.327379873779582 -1.345801501446255 0.37876673380225584 C -1.3527042139866141 0.4631332204066458 -1.3312291083054968 0.5421309305907562 -1.2990164497838208 0.618827736594747 C -1.2599010787217853 0.7123978399196159 -1.2046793783989118 0.7975312945840457 -1.1471567738959187 0.8811308131283958 C -1.1402540613555596 0.8918683659689546 -1.1325843807551605 0.9018389507494731 -1.1249147001547615 0.9125765035900318 C -1.1164780514943224 0.9248479925506703 -1.1180119876144023 0.9386534176313888 -1.128749540454961 0.9463230982317881 C -1.1394870932955197 0.953992778832187 -1.1486907100159987 0.9516918746520673 -1.1578943267364774 0.937886449571349 C -1.2322902285603485 0.8328118253458816 -1.30361825814406 0.7254362969402943 -1.3488693736864146 0.6034883753939491 C -1.3726453835476518 0.5421309305907563 -1.38798474474845 0.47923954966748383 -1.38721777668841 0.42171694516449076 Z" fill="#1192dc" transform="matrix(1,0,0,1,0,0)" fill-rule="nonzero"/></g><g clip-path="url(#SvgjsClipPath1012599c02d1-15fc-4d8b-b0fd-2a4845c62a86)"><path d=" M -0.9347066212648641 0.11646365726860733 C -0.8234962525590775 0.11799759338868715 -0.726858276994049 0.15787993251076238 -0.6401908862095397 0.22614008985431416 C -0.5742316330461076 0.27906088599706785 -0.5213108369033539 0.3434862030404201 -0.48219546584131856 0.4186490729243311 C -0.4806615297212391 0.4217169451644909 -0.4791275936011592 0.4247848174046504 -0.4775936574810793 0.4278526896448101 C -0.4760597213609996 0.43168752994500964 -0.47682668942103934 0.43552237024520923 -0.4806615297212391 0.43782327442532887 C -0.48449637002143864 0.4401241786054486 -0.487564242261598 0.43859024248536876 -0.48986514644171786 0.43552237024520923 C -0.49293301868187744 0.43092056188496974 -0.49600089092203703 0.42631875352473025 -0.4990687631621966 0.4217169451644909 C -0.5634940802055488 0.30590476809846473 -0.6516954071101382 0.2169364731338354 -0.7759442328366033 0.16785051729128128 C -0.8633785916811527 0.13333695458948536 -0.953880822765862 0.12643424204912623 -1.0428491177304913 0.16248174087100184 C -1.144855869715799 0.20389801611315692 -1.2039124103388719 0.27982785405710786 -1.2131160270593506 0.3910382227628945 C -1.2207857076597497 0.4884431663879629 -1.1924078894382732 0.5774114613525922 -1.1456228377758388 0.6617779479569821 C -1.0896341693929257 0.7637846999422899 -1.012170395328895 0.8473842184866398 -0.9239690684243055 0.922547088370551 C -0.9209011961841459 0.9248479925506707 -0.9178333239439863 0.9271488967307905 -0.9155324197638667 0.93021676897095 C -0.9093966752835474 0.9394203856914289 -0.9101636433435871 0.9493909704719478 -0.9186002920040263 0.957060651072347 C -0.9262699726044253 0.9639633636127062 -0.9339396532048244 0.9616624594325862 -0.9416093338052235 0.9555267149522672 C -0.9784238006871391 0.9256149606107107 -1.012937363388935 0.8934023020890347 -1.0459169899706509 0.8588887393872388 C -1.0942359777531652 0.8075018793645649 -1.1371861891154 0.7522801790416914 -1.1716997518171959 0.6909227342384989 C -1.2215526757197899 0.6034883753939491 -1.252998366181426 0.5106852401291202 -1.2514644300613462 0.4086784881438123 C -1.2491635258812266 0.26909030121654903 -1.1502246461360783 0.15174418803044307 -1.012937363388935 0.1256672739890862 C -0.9868604493475779 0.1202984975688069 -0.9607835353062212 0.11646365726860733 -0.9347066212648641 0.11646365726860733 Z" fill="#1192dc" transform="matrix(1,0,0,1,0,0)" fill-rule="nonzero"/></g><g clip-path="url(#SvgjsClipPath1012599c02d1-15fc-4d8b-b0fd-2a4845c62a86)"><path d=" M -0.9201342281241061 0.45853141204640635 C -0.9186002920040262 0.4930449747482022 -0.9070957711034275 0.528325505510038 -0.8917564099026294 0.5628390682118338 C -0.8603107194409932 0.6318661936154255 -0.8181274761387982 0.6939906064786581 -0.7659736480560845 0.7492123068015315 C -0.7314600853542887 0.7860267736834471 -0.6915777462322136 0.8159385280250037 -0.6394239181494996 0.8243751766854424 C -0.613347004108143 0.8282100169856419 -0.5895709942469057 0.8190064002651631 -0.5650280163256288 0.8128706557848439 C -0.5527565273649903 0.8098027835446842 -0.5412520064643918 0.8067349113045247 -0.5289805175037532 0.8044340071244049 C -0.48679727420155827 0.7975312945840457 -0.4530506795598024 0.8128706557848439 -0.4277407335784855 0.8466172504265999 C -0.41086743625760747 0.8688593241677574 -0.40856653207748783 0.8941692701490741 -0.4208380210381264 0.9187122480703513 C -0.44921583925960284 0.9731669803331847 -0.4952339228619973 1.0046126707948209 -0.5535234954250304 1.019952031995619 C -0.5650280163256289 1.0230199042357788 -0.5726976969260282 1.0191850639355793 -0.5757655691661877 1.006913574974941 C -0.5788334414063474 0.9946420860143023 -0.5742316330461081 0.9885063415339829 -0.5604262079653897 0.9854384692938233 C -0.5167090285431151 0.9762348525733445 -0.48296243390135896 0.9516918746520673 -0.4530506795598026 0.9187122480703513 C -0.446914935079483 0.9118095355299921 -0.4423131267192437 0.904139854929593 -0.43924525447908414 0.895703206269154 C -0.4338764780588049 0.8811308131283958 -0.4354104141788846 0.8680923561077173 -0.446914935079483 0.8565878352071188 C -0.4676230727005606 0.8366466656460811 -0.4921660506218377 0.8274430489256023 -0.5205438688433142 0.8343457614659614 C -0.5404850384043518 0.8389475698262009 -0.5611931760254295 0.8435493781864404 -0.5803673775264272 0.8496851226667596 C -0.6294533333689812 0.8650244838675576 -0.6731705127912561 0.8527529949069191 -0.714586788033411 0.8266760808655623 C -0.7713424244763641 0.7913955501037266 -0.8127586997185192 0.7407756581410926 -0.8503401346604748 0.6870878939382989 C -0.8902224737825499 0.6303322574953457 -0.9247360364843458 0.5705087488122329 -0.940075397685144 0.5014816234086411 C -0.9454441741054234 0.4784725816074439 -0.948512046345583 0.45546353980624665 -0.9454441741054234 0.43168752994500953 C -0.9385414615650641 0.3718640212618967 -0.8971251863229092 0.34041833080026046 -0.8426704540600757 0.33428258631994123 C -0.765206679996045 0.32507896959946225 -0.7076840754930518 0.35729162812113846 -0.6685687044310166 0.4240178493446104 C -0.6539963112902583 0.44856082726588753 -0.6417248223296198 0.4738707732472045 -0.6256184930687819 0.49687981504840173 C -0.6164148763483032 0.5099182720690802 -0.6049103554477044 0.5214227929696789 -0.591104930366986 0.5298594416301178 C -0.5726976969260282 0.5413639625307164 -0.5535234954250304 0.5474997070110356 -0.5320483897439132 0.5421309305907562 C -0.5213108369033546 0.5398300264106366 -0.5151750924230352 0.5436648667108361 -0.5128741882429155 0.5536354514913548 C -0.5105732840627957 0.5643730043319137 -0.5190099327232347 0.5666739085120334 -0.526679613323634 0.5682078446321132 C -0.5611931760254296 0.5751105571724724 -0.5888040261868663 0.5605381640317141 -0.6141139721681834 0.5390630583505966 C -0.6394239181495004 0.518354920729519 -0.6547632793502984 0.4899771025080425 -0.6701026405510967 0.461599284286566 C -0.6862089698119347 0.43168752994500953 -0.701548331012733 0.40100880754341317 -0.7314600853542894 0.38183460604241554 C -0.7751772647765641 0.35345678782093887 -0.8211953483789586 0.34885497946069943 -0.8687473681014329 0.3703300851418168 C -0.9063288030433876 0.386436414402655 -0.9201342281241061 0.4171151368042514 -0.9201342281241061 0.45853141204640635 Z" fill="#1192dc" transform="matrix(1,0,0,1,0,0)" fill-rule="nonzero"/></g><g clip-path="url(#SvgjsClipPath1012599c02d1-15fc-4d8b-b0fd-2a4845c62a86)"><path d=" M -0.8618446555610729 0.22460615373423443 C -0.9070957711034275 0.22307221761415455 -0.953113854705822 0.2376446107549129 -0.9914622577078173 0.2706242373366289 C -1.0420821496704513 0.31357444869886375 -1.0574215108712495 0.3710970532018568 -1.0505187983308901 0.4347554021851693 C -1.0397812454903315 0.5359951861104372 -0.9899283215877375 0.6218956088349069 -0.9331726851447844 0.703194223199137 C -0.8971251863229087 0.754581083221811 -0.8572428472008333 0.804434007124405 -0.8112247635984389 0.8473842184866398 C -0.7690415202962441 0.8872665576087151 -0.7230234366938496 0.9210131522504711 -0.6655008321908564 0.9355855453912295 C -0.6570641835304174 0.9378864495713493 -0.6486275348699786 0.938653417631389 -0.6409578542695794 0.9409543218115087 C -0.6294533333689809 0.9440221940516683 -0.6240845569487017 0.9516918746520675 -0.6263854611288212 0.963196395552666 C -0.628686365308941 0.9747009164532646 -0.6363560459093401 0.9762348525733445 -0.6470935987498987 0.9747009164532646 C -0.7046162032528916 0.9670312358528655 -0.7537021590954458 0.9394203856914289 -0.7966523704576806 0.9026059188095132 C -0.9116975794636668 0.8029000710043251 -1.0006658744282961 0.6832530536380995 -1.0566545428112095 0.5405969944706766 C -1.078129648492327 0.48614226220784307 -1.0896341693929257 0.4293866257648899 -1.0804305526724467 0.3710970532018568 C -1.0673920956517682 0.28366269435730723 -1.001432842488336 0.21770344119387516 -0.9124645475237068 0.2038980161131568 C -0.8273310928592769 0.19085955909247837 -0.7514012549153261 0.21386860089367557 -0.6831410975717742 0.26448849285630954 C -0.6110460999280228 0.31817625705910313 -0.5604262079653891 0.38950428664281456 -0.5259126452635932 0.47233683712712465 C -0.5243787091435135 0.4754047093672844 -0.5236117410834733 0.4784725816074439 -0.5228447730234334 0.4815404538476036 C -0.5220778049633936 0.4853752941478031 -0.5236117410834733 0.48921013444800265 -0.5274465813836728 0.49074407056808245 C -0.5312814216838724 0.4930449747482022 -0.5351162619840719 0.4915110386281224 -0.5374171661641917 0.4884431663879628 C -0.5404850384043514 0.4838413580277233 -0.5435529106445111 0.478472581607444 -0.5458538148246307 0.4738707732472045 C -0.5811343455864664 0.3910382227628944 -0.6325212056091402 0.3212441292992628 -0.7076840754930511 0.2706242373366289 C -0.7521682229753661 0.24071248299507253 -0.8027881149380001 0.22460615373423443 -0.8618446555610729 0.22460615373423443 Z" fill="#1192dc" transform="matrix(1,0,0,1,0,0)" fill-rule="nonzero"/></g><g clip-path="url(#SvgjsClipPath1012599c02d1-15fc-4d8b-b0fd-2a4845c62a86)"><path d=" M -1.236125068860548 1.073639796198413 C -1.236892036920588 1.0859112851590513 -1.2430277814009072 1.0951149018795303 -1.2545323023015058 1.0989497421797298 C -1.2652698551420645 1.1027845824799294 -1.2721725676824238 1.09741580605965 -1.278308312162743 1.0889791573992111 C -1.3688105432474522 0.9624294274926263 -1.4409055408912035 0.8274430489256023 -1.4754191035929993 0.6740494369176206 C -1.4823218161333584 0.6418367783959446 -1.4884575606136778 0.6096241198742683 -1.494593305093997 0.5774114613525924 C -1.4976611773341566 0.5620721001517941 -1.4922924009138774 0.5528684834313152 -1.4777200077731192 0.5498006111911556 C -1.4646815507524407 0.5467327389509961 -1.453943997911882 0.5536354514913553 -1.4508761256717224 0.5682078446321135 C -1.4424394770112834 0.605789279574069 -1.436303732530964 0.6441376825760644 -1.4271001158104852 0.68095214945798 C -1.4017901698291682 0.7814249653232079 -1.3580729904068933 0.874228100588037 -1.3043852262040998 0.9631963955526662 C -1.285977992763142 0.9938751179542628 -1.2660368232021044 1.023786872295819 -1.2453286855810268 1.0521646905172957 C -1.2399599091607476 1.0590674030576546 -1.2353581008005081 1.0652031475379737 -1.236125068860548 1.073639796198413 Z" fill="#1192dc" transform="matrix(1,0,0,1,0,0)" fill-rule="nonzero"/></g><g clip-path="url(#SvgjsClipPath1012599c02d1-15fc-4d8b-b0fd-2a4845c62a86)"><path d=" M -0.5151750924230345 0.7001263509589775 C -0.5742316330461074 0.7008933190190173 -0.6248515250087415 0.6755833730377003 -0.6716365766711758 0.6433707145160241 C -0.7260913089340091 0.6050223115140287 -0.769808488356284 0.5574702917915545 -0.7989532746378005 0.49687981504840173 C -0.8035550829980399 0.486909230267883 -0.8073899232982394 0.4769386454873641 -0.810457795538399 0.46696806070684527 C -0.8127586997185188 0.4615992842865659 -0.8135256677785587 0.45546353980624665 -0.8073899232982394 0.452395667566087 C -0.8004872107578803 0.4493277953259273 -0.795118434337601 0.4516286995060471 -0.7912835940374013 0.4577644439863664 C -0.7874487537372018 0.4631332204066458 -0.785914817617122 0.469268964886965 -0.7828469453769625 0.4754047093672843 C -0.7368288617745681 0.5735766210523925 -0.6624329599506968 0.6403028422758645 -0.5573583357252295 0.669447628557381 C -0.5090393479427151 0.6824860855780595 -0.46302126434032065 0.6755833730377002 -0.4231389252182456 0.6426037464559842 C -0.4170031807379262 0.6380019380957448 -0.411634404317647 0.6334001297355053 -0.4047316917772876 0.6410698103359044 C -0.3978289792369285 0.6487394909363035 -0.39859594729696846 0.6564091715367025 -0.40626562789736753 0.6633118840770618 C -0.43234254193872435 0.686320925878259 -0.4622542962802809 0.6993593828989375 -0.49676785898207676 0.7016602870790571 C -0.5029036034623962 0.7001263509589775 -0.5090393479427155 0.7001263509589775 -0.5151750924230345 0.7001263509589775 Z" fill="#1192dc" transform="matrix(1,0,0,1,0,0)" fill-rule="nonzero"/></g><g clip-path="url(#SvgjsClipPath1012599c02d1-15fc-4d8b-b0fd-2a4845c62a86)"><path d=" M -0.5067384437625957 0.23917854687499263 C -0.5029036034623962 0.23917854687499263 -0.5006026992822763 0.24147945105511237 -0.49830179510215666 0.24378035523523212 C -0.4660891365804807 0.2828957262972675 -0.4346434461188442 0.3227780654193427 -0.4070325959574077 0.36572827678157743 C -0.4039647237172479 0.3703300851418169 -0.40012988341704836 0.37646582962213626 -0.4070325959574077 0.3803006699223358 C -0.4124013723776869 0.38336854216249544 -0.41623621267788646 0.37799976574221605 -0.41930408491804627 0.37339795738197656 C -0.4476819031395227 0.33274865019986144 -0.47759365748107907 0.2944002471978661 -0.5082723798826754 0.25528487613583073 C -0.5113402521228352 0.25145003583563114 -0.5144081243629948 0.24761519553543165 -0.5128741882429149 0.24301338717519216 C -0.5113402521228352 0.23994551493503252 -0.5090393479427155 0.23917854687499263 -0.5067384437625957 0.23917854687499263 Z" fill="#1192dc" transform="matrix(1,0,0,1,0,0)" fill-rule="nonzero"/></g></g></g><defs><clipPath id="SvgjsClipPath1015"><path d=" M -1.5298738358558328 -0.026210351467371384 h 1.129873835855833 v 1.1264207029347426 h -1.129873835855833 Z"/></clipPath><clipPath id="SvgjsClipPath1012599c02d1-15fc-4d8b-b0fd-2a4845c62a86"><path d=" M -1.5298738358558328 -0.026210351467371485 L -0.3999999999999999 -0.026210351467371485 L -0.3999999999999999 1.1002103514673713 L -1.5298738358558328 1.1002103514673713 Z"/></clipPath></defs>
</svg>
